<mxfile host="app.diagrams.net" modified="2021-09-11T18:40:36.666Z" agent="5.0 (Macintosh; Intel Mac OS X 10_15_7) AppleWebKit/605.1.15 (KHTML, like Gecko) Version/14.1.2 Safari/605.1.15" etag="Eka_CC9JaED53Y0mVBue" version="15.1.4" type="github" pages="3">
  <diagram id="k1nF03zysGhd_CwNFc21" name="Create">
    <mxGraphModel dx="946" dy="645" grid="1" gridSize="10" guides="1" tooltips="1" connect="1" arrows="1" fold="1" page="1" pageScale="1" pageWidth="827" pageHeight="1169" math="0" shadow="0">
      <root>
        <mxCell id="0" />
        <mxCell id="1" parent="0" />
        <mxCell id="WyS34W7af3J4gwOdOwOQ-30" style="edgeStyle=orthogonalEdgeStyle;rounded=0;orthogonalLoop=1;jettySize=auto;html=1;exitX=0.5;exitY=0;exitDx=0;exitDy=0;entryX=0.5;entryY=1;entryDx=0;entryDy=0;" parent="1" source="WyS34W7af3J4gwOdOwOQ-3" target="WyS34W7af3J4gwOdOwOQ-20" edge="1">
          <mxGeometry relative="1" as="geometry" />
        </mxCell>
        <mxCell id="WyS34W7af3J4gwOdOwOQ-3" value="L1" style="rounded=1;whiteSpace=wrap;html=1;fillColor=#fff2cc;strokeColor=#d6b656;strokeWidth=3;" parent="1" vertex="1">
          <mxGeometry x="28.25" y="370" width="60" height="30" as="geometry" />
        </mxCell>
        <mxCell id="WyS34W7af3J4gwOdOwOQ-31" style="edgeStyle=orthogonalEdgeStyle;rounded=0;orthogonalLoop=1;jettySize=auto;html=1;exitX=0.5;exitY=0;exitDx=0;exitDy=0;entryX=0.5;entryY=1;entryDx=0;entryDy=0;" parent="1" source="WyS34W7af3J4gwOdOwOQ-4" target="WyS34W7af3J4gwOdOwOQ-21" edge="1">
          <mxGeometry relative="1" as="geometry" />
        </mxCell>
        <mxCell id="WyS34W7af3J4gwOdOwOQ-4" value="L2" style="rounded=1;whiteSpace=wrap;html=1;fillColor=#fff2cc;strokeColor=#d6b656;strokeWidth=3;" parent="1" vertex="1">
          <mxGeometry x="120.75" y="370" width="60" height="30" as="geometry" />
        </mxCell>
        <mxCell id="WyS34W7af3J4gwOdOwOQ-32" style="edgeStyle=orthogonalEdgeStyle;rounded=0;orthogonalLoop=1;jettySize=auto;html=1;exitX=0.5;exitY=0;exitDx=0;exitDy=0;entryX=0.5;entryY=1;entryDx=0;entryDy=0;" parent="1" source="WyS34W7af3J4gwOdOwOQ-5" target="WyS34W7af3J4gwOdOwOQ-22" edge="1">
          <mxGeometry relative="1" as="geometry" />
        </mxCell>
        <mxCell id="WyS34W7af3J4gwOdOwOQ-5" value="L3" style="rounded=1;whiteSpace=wrap;html=1;fillColor=#fff2cc;strokeColor=#d6b656;strokeWidth=3;" parent="1" vertex="1">
          <mxGeometry x="213.25" y="370" width="60" height="30" as="geometry" />
        </mxCell>
        <mxCell id="WyS34W7af3J4gwOdOwOQ-33" style="edgeStyle=orthogonalEdgeStyle;rounded=0;orthogonalLoop=1;jettySize=auto;html=1;exitX=0.5;exitY=0;exitDx=0;exitDy=0;entryX=0.5;entryY=1;entryDx=0;entryDy=0;" parent="1" source="WyS34W7af3J4gwOdOwOQ-6" target="WyS34W7af3J4gwOdOwOQ-23" edge="1">
          <mxGeometry relative="1" as="geometry" />
        </mxCell>
        <mxCell id="WyS34W7af3J4gwOdOwOQ-6" value="L4" style="rounded=1;whiteSpace=wrap;html=1;fillColor=#fff2cc;strokeColor=#d6b656;strokeWidth=3;" parent="1" vertex="1">
          <mxGeometry x="305.75" y="370" width="60" height="30" as="geometry" />
        </mxCell>
        <mxCell id="WyS34W7af3J4gwOdOwOQ-34" style="edgeStyle=orthogonalEdgeStyle;rounded=0;orthogonalLoop=1;jettySize=auto;html=1;exitX=0.5;exitY=0;exitDx=0;exitDy=0;entryX=0.5;entryY=1;entryDx=0;entryDy=0;" parent="1" source="WyS34W7af3J4gwOdOwOQ-7" target="WyS34W7af3J4gwOdOwOQ-24" edge="1">
          <mxGeometry relative="1" as="geometry" />
        </mxCell>
        <mxCell id="WyS34W7af3J4gwOdOwOQ-7" value="L5" style="rounded=1;whiteSpace=wrap;html=1;fillColor=#fff2cc;strokeWidth=3;strokeColor=#FF6666;" parent="1" vertex="1">
          <mxGeometry x="409.5" y="370" width="60" height="30" as="geometry" />
        </mxCell>
        <mxCell id="WyS34W7af3J4gwOdOwOQ-35" style="edgeStyle=orthogonalEdgeStyle;rounded=0;orthogonalLoop=1;jettySize=auto;html=1;exitX=0.5;exitY=0;exitDx=0;exitDy=0;entryX=0.5;entryY=1;entryDx=0;entryDy=0;" parent="1" source="WyS34W7af3J4gwOdOwOQ-8" target="WyS34W7af3J4gwOdOwOQ-25" edge="1">
          <mxGeometry relative="1" as="geometry" />
        </mxCell>
        <mxCell id="WyS34W7af3J4gwOdOwOQ-8" value="L6" style="rounded=1;whiteSpace=wrap;html=1;fillColor=#fff2cc;strokeColor=#d6b656;strokeWidth=3;" parent="1" vertex="1">
          <mxGeometry x="509.5" y="370" width="60" height="30" as="geometry" />
        </mxCell>
        <mxCell id="WyS34W7af3J4gwOdOwOQ-36" style="edgeStyle=orthogonalEdgeStyle;rounded=0;orthogonalLoop=1;jettySize=auto;html=1;exitX=0.5;exitY=0;exitDx=0;exitDy=0;entryX=0.5;entryY=1;entryDx=0;entryDy=0;" parent="1" source="WyS34W7af3J4gwOdOwOQ-9" target="WyS34W7af3J4gwOdOwOQ-26" edge="1">
          <mxGeometry relative="1" as="geometry" />
        </mxCell>
        <mxCell id="WyS34W7af3J4gwOdOwOQ-9" value="L7" style="rounded=1;whiteSpace=wrap;html=1;fillColor=#fff2cc;strokeColor=#d6b656;strokeWidth=3;" parent="1" vertex="1">
          <mxGeometry x="612" y="370" width="60" height="30" as="geometry" />
        </mxCell>
        <mxCell id="WyS34W7af3J4gwOdOwOQ-37" style="edgeStyle=orthogonalEdgeStyle;rounded=0;orthogonalLoop=1;jettySize=auto;html=1;exitX=0.5;exitY=0;exitDx=0;exitDy=0;entryX=0.5;entryY=1;entryDx=0;entryDy=0;" parent="1" source="WyS34W7af3J4gwOdOwOQ-10" target="WyS34W7af3J4gwOdOwOQ-27" edge="1">
          <mxGeometry relative="1" as="geometry" />
        </mxCell>
        <mxCell id="WyS34W7af3J4gwOdOwOQ-10" value="L8" style="rounded=1;whiteSpace=wrap;html=1;fillColor=#fff2cc;strokeColor=#d6b656;strokeWidth=3;" parent="1" vertex="1">
          <mxGeometry x="739.17" y="378.72" width="60" height="30" as="geometry" />
        </mxCell>
        <mxCell id="WyS34W7af3J4gwOdOwOQ-42" style="rounded=0;orthogonalLoop=1;jettySize=auto;html=1;exitX=0.5;exitY=0;exitDx=0;exitDy=0;entryX=0;entryY=1;entryDx=0;entryDy=0;" parent="1" source="WyS34W7af3J4gwOdOwOQ-20" target="WyS34W7af3J4gwOdOwOQ-38" edge="1">
          <mxGeometry relative="1" as="geometry" />
        </mxCell>
        <mxCell id="WyS34W7af3J4gwOdOwOQ-20" value="&lt;font style=&quot;font-size: 12px&quot;&gt;H1_1 =&lt;br&gt;Hash(L1)&lt;/font&gt;" style="ellipse;whiteSpace=wrap;html=1;strokeColor=#d6b656;strokeWidth=3;fillColor=#fff2cc;" parent="1" vertex="1">
          <mxGeometry x="17" y="280" width="82.5" height="60" as="geometry" />
        </mxCell>
        <mxCell id="WyS34W7af3J4gwOdOwOQ-43" style="edgeStyle=none;rounded=0;orthogonalLoop=1;jettySize=auto;html=1;exitX=0.5;exitY=0;exitDx=0;exitDy=0;entryX=1;entryY=1;entryDx=0;entryDy=0;" parent="1" source="WyS34W7af3J4gwOdOwOQ-21" target="WyS34W7af3J4gwOdOwOQ-38" edge="1">
          <mxGeometry relative="1" as="geometry" />
        </mxCell>
        <mxCell id="WyS34W7af3J4gwOdOwOQ-21" value="&lt;font style=&quot;font-size: 12px&quot;&gt;H1_2 =&lt;br&gt;Hash(L2)&lt;/font&gt;" style="ellipse;whiteSpace=wrap;html=1;strokeColor=#d6b656;strokeWidth=3;fillColor=#fff2cc;" parent="1" vertex="1">
          <mxGeometry x="108.25" y="280" width="85" height="60" as="geometry" />
        </mxCell>
        <mxCell id="WyS34W7af3J4gwOdOwOQ-44" style="edgeStyle=none;rounded=0;orthogonalLoop=1;jettySize=auto;html=1;exitX=0.5;exitY=0;exitDx=0;exitDy=0;entryX=0;entryY=1;entryDx=0;entryDy=0;" parent="1" source="WyS34W7af3J4gwOdOwOQ-22" target="WyS34W7af3J4gwOdOwOQ-39" edge="1">
          <mxGeometry relative="1" as="geometry" />
        </mxCell>
        <mxCell id="WyS34W7af3J4gwOdOwOQ-22" value="&lt;font style=&quot;font-size: 12px&quot;&gt;H1_3 =&lt;br&gt;Hash(L3)&lt;/font&gt;" style="ellipse;whiteSpace=wrap;html=1;strokeColor=#d6b656;strokeWidth=3;fillColor=#fff2cc;" parent="1" vertex="1">
          <mxGeometry x="200.75" y="280" width="85" height="60" as="geometry" />
        </mxCell>
        <mxCell id="WyS34W7af3J4gwOdOwOQ-45" style="edgeStyle=none;rounded=0;orthogonalLoop=1;jettySize=auto;html=1;exitX=0.5;exitY=0;exitDx=0;exitDy=0;entryX=1;entryY=1;entryDx=0;entryDy=0;" parent="1" source="WyS34W7af3J4gwOdOwOQ-23" target="WyS34W7af3J4gwOdOwOQ-39" edge="1">
          <mxGeometry relative="1" as="geometry" />
        </mxCell>
        <mxCell id="WyS34W7af3J4gwOdOwOQ-23" value="&lt;font style=&quot;font-size: 12px&quot;&gt;H1_4 =&lt;br&gt;Hash(L4)&lt;/font&gt;" style="ellipse;whiteSpace=wrap;html=1;strokeColor=#d6b656;strokeWidth=3;fillColor=#fff2cc;" parent="1" vertex="1">
          <mxGeometry x="293.25" y="280" width="85" height="60" as="geometry" />
        </mxCell>
        <mxCell id="WyS34W7af3J4gwOdOwOQ-61" style="edgeStyle=none;rounded=0;orthogonalLoop=1;jettySize=auto;html=1;exitX=0.5;exitY=0;exitDx=0;exitDy=0;entryX=0;entryY=1;entryDx=0;entryDy=0;" parent="1" source="WyS34W7af3J4gwOdOwOQ-24" target="WyS34W7af3J4gwOdOwOQ-40" edge="1">
          <mxGeometry relative="1" as="geometry" />
        </mxCell>
        <mxCell id="WyS34W7af3J4gwOdOwOQ-24" value="&lt;font style=&quot;font-size: 12px&quot;&gt;H1_5 =&lt;br&gt;Hash(L5)&lt;/font&gt;" style="ellipse;whiteSpace=wrap;html=1;strokeWidth=3;fillColor=#fff2cc;strokeColor=#FF6666;" parent="1" vertex="1">
          <mxGeometry x="397" y="280" width="85" height="60" as="geometry" />
        </mxCell>
        <mxCell id="WyS34W7af3J4gwOdOwOQ-47" style="edgeStyle=none;rounded=0;orthogonalLoop=1;jettySize=auto;html=1;exitX=0.5;exitY=0;exitDx=0;exitDy=0;entryX=0.5;entryY=1;entryDx=0;entryDy=0;" parent="1" source="WyS34W7af3J4gwOdOwOQ-25" target="WyS34W7af3J4gwOdOwOQ-40" edge="1">
          <mxGeometry relative="1" as="geometry" />
        </mxCell>
        <mxCell id="WyS34W7af3J4gwOdOwOQ-25" value="&lt;font style=&quot;font-size: 12px&quot;&gt;H1_6 =&lt;br&gt;Hash(L6)&lt;/font&gt;" style="ellipse;whiteSpace=wrap;html=1;strokeColor=#d6b656;strokeWidth=3;fillColor=#fff2cc;" parent="1" vertex="1">
          <mxGeometry x="497" y="280" width="85" height="60" as="geometry" />
        </mxCell>
        <mxCell id="WyS34W7af3J4gwOdOwOQ-48" style="edgeStyle=none;rounded=0;orthogonalLoop=1;jettySize=auto;html=1;exitX=0.5;exitY=0;exitDx=0;exitDy=0;dashed=1;" parent="1" source="WyS34W7af3J4gwOdOwOQ-26" edge="1">
          <mxGeometry relative="1" as="geometry">
            <mxPoint x="569" y="251" as="targetPoint" />
          </mxGeometry>
        </mxCell>
        <mxCell id="WyS34W7af3J4gwOdOwOQ-62" style="edgeStyle=none;rounded=0;orthogonalLoop=1;jettySize=auto;html=1;exitX=1;exitY=0;exitDx=0;exitDy=0;entryX=0;entryY=1;entryDx=0;entryDy=0;" parent="1" source="WyS34W7af3J4gwOdOwOQ-26" target="WyS34W7af3J4gwOdOwOQ-41" edge="1">
          <mxGeometry relative="1" as="geometry" />
        </mxCell>
        <mxCell id="WyS34W7af3J4gwOdOwOQ-26" value="&lt;font style=&quot;font-size: 12px&quot;&gt;H1_7 =&lt;br&gt;Hash(L7)&lt;/font&gt;" style="ellipse;whiteSpace=wrap;html=1;strokeColor=#d6b656;strokeWidth=3;fillColor=#fff2cc;" parent="1" vertex="1">
          <mxGeometry x="599.5" y="280" width="85" height="60" as="geometry" />
        </mxCell>
        <mxCell id="WyS34W7af3J4gwOdOwOQ-49" style="edgeStyle=none;rounded=0;orthogonalLoop=1;jettySize=auto;html=1;exitX=0.5;exitY=0;exitDx=0;exitDy=0;entryX=0.5;entryY=1;entryDx=0;entryDy=0;" parent="1" source="WyS34W7af3J4gwOdOwOQ-27" target="WyS34W7af3J4gwOdOwOQ-41" edge="1">
          <mxGeometry relative="1" as="geometry" />
        </mxCell>
        <mxCell id="WyS34W7af3J4gwOdOwOQ-27" value="&lt;font style=&quot;font-size: 12px&quot;&gt;H1_8 =&lt;br&gt;Hash(L8)&lt;/font&gt;" style="ellipse;whiteSpace=wrap;html=1;strokeColor=#d6b656;strokeWidth=3;fillColor=#fff2cc;" parent="1" vertex="1">
          <mxGeometry x="725.42" y="288.72" width="85" height="60" as="geometry" />
        </mxCell>
        <mxCell id="WyS34W7af3J4gwOdOwOQ-52" style="edgeStyle=none;rounded=0;orthogonalLoop=1;jettySize=auto;html=1;exitX=0.5;exitY=0;exitDx=0;exitDy=0;entryX=0;entryY=1;entryDx=0;entryDy=0;" parent="1" source="WyS34W7af3J4gwOdOwOQ-38" target="WyS34W7af3J4gwOdOwOQ-50" edge="1">
          <mxGeometry relative="1" as="geometry" />
        </mxCell>
        <mxCell id="WyS34W7af3J4gwOdOwOQ-38" value="&lt;font style=&quot;font-size: 12px&quot;&gt;H2_1 =&lt;br&gt;Hash(H1_1, H1_2)&lt;/font&gt;" style="ellipse;whiteSpace=wrap;html=1;strokeColor=#d6b656;strokeWidth=3;fillColor=#fff2cc;" parent="1" vertex="1">
          <mxGeometry x="65.75" y="200" width="82.5" height="60" as="geometry" />
        </mxCell>
        <mxCell id="WyS34W7af3J4gwOdOwOQ-53" style="edgeStyle=none;rounded=0;orthogonalLoop=1;jettySize=auto;html=1;exitX=0.5;exitY=0;exitDx=0;exitDy=0;entryX=1;entryY=1;entryDx=0;entryDy=0;" parent="1" source="WyS34W7af3J4gwOdOwOQ-39" target="WyS34W7af3J4gwOdOwOQ-50" edge="1">
          <mxGeometry relative="1" as="geometry" />
        </mxCell>
        <mxCell id="WyS34W7af3J4gwOdOwOQ-39" value="&lt;font style=&quot;font-size: 12px&quot;&gt;H2_2 =&lt;br&gt;Hash(H1_3, H1_4)&lt;/font&gt;" style="ellipse;whiteSpace=wrap;html=1;strokeColor=#d6b656;strokeWidth=3;fillColor=#fff2cc;" parent="1" vertex="1">
          <mxGeometry x="245.75" y="200" width="82.5" height="60" as="geometry" />
        </mxCell>
        <mxCell id="WyS34W7af3J4gwOdOwOQ-54" style="edgeStyle=none;rounded=0;orthogonalLoop=1;jettySize=auto;html=1;exitX=0.5;exitY=0;exitDx=0;exitDy=0;entryX=0;entryY=1;entryDx=0;entryDy=0;" parent="1" source="WyS34W7af3J4gwOdOwOQ-40" target="WyS34W7af3J4gwOdOwOQ-51" edge="1">
          <mxGeometry relative="1" as="geometry" />
        </mxCell>
        <mxCell id="WyS34W7af3J4gwOdOwOQ-40" value="&lt;font style=&quot;font-size: 12px&quot;&gt;H2_3 =&lt;br&gt;Hash(H1_5, H1_6)&lt;/font&gt;" style="ellipse;whiteSpace=wrap;html=1;strokeWidth=3;fillColor=#fff2cc;strokeColor=#FF6666;" parent="1" vertex="1">
          <mxGeometry x="498.25" y="200" width="82.5" height="60" as="geometry" />
        </mxCell>
        <mxCell id="WyS34W7af3J4gwOdOwOQ-55" style="edgeStyle=none;rounded=0;orthogonalLoop=1;jettySize=auto;html=1;exitX=0.5;exitY=0;exitDx=0;exitDy=0;entryX=1;entryY=1;entryDx=0;entryDy=0;" parent="1" source="WyS34W7af3J4gwOdOwOQ-41" target="WyS34W7af3J4gwOdOwOQ-51" edge="1">
          <mxGeometry relative="1" as="geometry">
            <mxPoint x="697" y="190" as="targetPoint" />
          </mxGeometry>
        </mxCell>
        <mxCell id="WyS34W7af3J4gwOdOwOQ-41" value="&lt;font style=&quot;font-size: 12px&quot;&gt;H2_4 =&lt;br&gt;Hash(H1_7, H1_8)&lt;/font&gt;" style="ellipse;whiteSpace=wrap;html=1;strokeWidth=3;fillColor=#fff2cc;strokeColor=#FF6666;" parent="1" vertex="1">
          <mxGeometry x="726.67" y="208.72" width="82.5" height="60" as="geometry" />
        </mxCell>
        <mxCell id="WyS34W7af3J4gwOdOwOQ-57" style="edgeStyle=none;rounded=0;orthogonalLoop=1;jettySize=auto;html=1;exitX=0.5;exitY=0;exitDx=0;exitDy=0;entryX=0;entryY=1;entryDx=0;entryDy=0;" parent="1" source="WyS34W7af3J4gwOdOwOQ-50" target="WyS34W7af3J4gwOdOwOQ-56" edge="1">
          <mxGeometry relative="1" as="geometry" />
        </mxCell>
        <mxCell id="WyS34W7af3J4gwOdOwOQ-50" value="&lt;font style=&quot;font-size: 12px&quot;&gt;H3_1 =&lt;br&gt;Hash(H2_1, H2_2)&lt;/font&gt;" style="ellipse;whiteSpace=wrap;html=1;strokeColor=#d6b656;strokeWidth=3;fillColor=#fff2cc;" parent="1" vertex="1">
          <mxGeometry x="155.75" y="130" width="82.5" height="60" as="geometry" />
        </mxCell>
        <mxCell id="WyS34W7af3J4gwOdOwOQ-58" style="edgeStyle=none;rounded=0;orthogonalLoop=1;jettySize=auto;html=1;exitX=0;exitY=0;exitDx=0;exitDy=0;entryX=1;entryY=1;entryDx=0;entryDy=0;" parent="1" source="WyS34W7af3J4gwOdOwOQ-51" target="WyS34W7af3J4gwOdOwOQ-56" edge="1">
          <mxGeometry relative="1" as="geometry" />
        </mxCell>
        <mxCell id="WyS34W7af3J4gwOdOwOQ-51" value="&lt;font style=&quot;font-size: 12px&quot;&gt;H3_2 =&lt;br&gt;Hash(H2_3, H2_4)&lt;/font&gt;" style="ellipse;whiteSpace=wrap;html=1;strokeWidth=3;fillColor=#fff2cc;strokeColor=#FF6666;" parent="1" vertex="1">
          <mxGeometry x="642" y="130" width="82.5" height="60" as="geometry" />
        </mxCell>
        <mxCell id="WyS34W7af3J4gwOdOwOQ-56" value="&lt;font style=&quot;font-size: 12px&quot;&gt;H4_1 =&lt;br&gt;Hash(H3_1, H3_2)&lt;/font&gt;" style="ellipse;whiteSpace=wrap;html=1;strokeWidth=3;fillColor=#fff2cc;strokeColor=#FF6666;" parent="1" vertex="1">
          <mxGeometry x="367" y="60" width="82.5" height="60" as="geometry" />
        </mxCell>
      </root>
    </mxGraphModel>
  </diagram>
  <diagram id="EKVOqdvxPNdU1rzFcuh7" name="Update">
    <mxGraphModel dx="946" dy="645" grid="1" gridSize="10" guides="1" tooltips="1" connect="1" arrows="1" fold="1" page="1" pageScale="1" pageWidth="827" pageHeight="1169" math="0" shadow="0">
      <root>
        <mxCell id="Wb4yIE2d1NivTpbuQsiC-0" />
        <mxCell id="Wb4yIE2d1NivTpbuQsiC-1" parent="Wb4yIE2d1NivTpbuQsiC-0" />
        <mxCell id="U0yheI_mIUvBaA4ScWsQ-0" style="edgeStyle=orthogonalEdgeStyle;rounded=0;orthogonalLoop=1;jettySize=auto;html=1;exitX=0.5;exitY=0;exitDx=0;exitDy=0;entryX=0.5;entryY=1;entryDx=0;entryDy=0;" edge="1" parent="Wb4yIE2d1NivTpbuQsiC-1" source="U0yheI_mIUvBaA4ScWsQ-1" target="U0yheI_mIUvBaA4ScWsQ-17">
          <mxGeometry relative="1" as="geometry" />
        </mxCell>
        <mxCell id="U0yheI_mIUvBaA4ScWsQ-1" value="L1" style="rounded=1;whiteSpace=wrap;html=1;fillColor=#fff2cc;strokeColor=#d6b656;strokeWidth=3;" vertex="1" parent="Wb4yIE2d1NivTpbuQsiC-1">
          <mxGeometry x="28.25" y="370" width="60" height="30" as="geometry" />
        </mxCell>
        <mxCell id="U0yheI_mIUvBaA4ScWsQ-2" style="edgeStyle=orthogonalEdgeStyle;rounded=0;orthogonalLoop=1;jettySize=auto;html=1;exitX=0.5;exitY=0;exitDx=0;exitDy=0;entryX=0.5;entryY=1;entryDx=0;entryDy=0;" edge="1" parent="Wb4yIE2d1NivTpbuQsiC-1" source="U0yheI_mIUvBaA4ScWsQ-3" target="U0yheI_mIUvBaA4ScWsQ-19">
          <mxGeometry relative="1" as="geometry" />
        </mxCell>
        <mxCell id="U0yheI_mIUvBaA4ScWsQ-3" value="L2" style="rounded=1;whiteSpace=wrap;html=1;fillColor=#fff2cc;strokeColor=#d6b656;strokeWidth=3;" vertex="1" parent="Wb4yIE2d1NivTpbuQsiC-1">
          <mxGeometry x="120.75" y="370" width="60" height="30" as="geometry" />
        </mxCell>
        <mxCell id="U0yheI_mIUvBaA4ScWsQ-4" style="edgeStyle=orthogonalEdgeStyle;rounded=0;orthogonalLoop=1;jettySize=auto;html=1;exitX=0.5;exitY=0;exitDx=0;exitDy=0;entryX=0.5;entryY=1;entryDx=0;entryDy=0;" edge="1" parent="Wb4yIE2d1NivTpbuQsiC-1" source="U0yheI_mIUvBaA4ScWsQ-5" target="U0yheI_mIUvBaA4ScWsQ-21">
          <mxGeometry relative="1" as="geometry" />
        </mxCell>
        <mxCell id="U0yheI_mIUvBaA4ScWsQ-5" value="L3" style="rounded=1;whiteSpace=wrap;html=1;fillColor=#fff2cc;strokeColor=#d6b656;strokeWidth=3;" vertex="1" parent="Wb4yIE2d1NivTpbuQsiC-1">
          <mxGeometry x="213.25" y="370" width="60" height="30" as="geometry" />
        </mxCell>
        <mxCell id="U0yheI_mIUvBaA4ScWsQ-6" style="edgeStyle=orthogonalEdgeStyle;rounded=0;orthogonalLoop=1;jettySize=auto;html=1;exitX=0.5;exitY=0;exitDx=0;exitDy=0;entryX=0.5;entryY=1;entryDx=0;entryDy=0;" edge="1" parent="Wb4yIE2d1NivTpbuQsiC-1" source="U0yheI_mIUvBaA4ScWsQ-7" target="U0yheI_mIUvBaA4ScWsQ-23">
          <mxGeometry relative="1" as="geometry" />
        </mxCell>
        <mxCell id="U0yheI_mIUvBaA4ScWsQ-7" value="L4" style="rounded=1;whiteSpace=wrap;html=1;fillColor=#fff2cc;strokeColor=#d6b656;strokeWidth=3;" vertex="1" parent="Wb4yIE2d1NivTpbuQsiC-1">
          <mxGeometry x="305.75" y="370" width="60" height="30" as="geometry" />
        </mxCell>
        <mxCell id="U0yheI_mIUvBaA4ScWsQ-8" style="edgeStyle=orthogonalEdgeStyle;rounded=0;orthogonalLoop=1;jettySize=auto;html=1;exitX=0.5;exitY=0;exitDx=0;exitDy=0;entryX=0.5;entryY=1;entryDx=0;entryDy=0;" edge="1" parent="Wb4yIE2d1NivTpbuQsiC-1" source="U0yheI_mIUvBaA4ScWsQ-9" target="U0yheI_mIUvBaA4ScWsQ-25">
          <mxGeometry relative="1" as="geometry" />
        </mxCell>
        <mxCell id="U0yheI_mIUvBaA4ScWsQ-9" value="L5" style="rounded=1;whiteSpace=wrap;html=1;fillColor=#fff2cc;strokeWidth=3;strokeColor=#FF6666;" vertex="1" parent="Wb4yIE2d1NivTpbuQsiC-1">
          <mxGeometry x="409.5" y="370" width="60" height="30" as="geometry" />
        </mxCell>
        <mxCell id="U0yheI_mIUvBaA4ScWsQ-10" style="edgeStyle=orthogonalEdgeStyle;rounded=0;orthogonalLoop=1;jettySize=auto;html=1;exitX=0.5;exitY=0;exitDx=0;exitDy=0;entryX=0.5;entryY=1;entryDx=0;entryDy=0;" edge="1" parent="Wb4yIE2d1NivTpbuQsiC-1" source="U0yheI_mIUvBaA4ScWsQ-11" target="U0yheI_mIUvBaA4ScWsQ-27">
          <mxGeometry relative="1" as="geometry" />
        </mxCell>
        <mxCell id="U0yheI_mIUvBaA4ScWsQ-11" value="L6" style="rounded=1;whiteSpace=wrap;html=1;fillColor=#fff2cc;strokeColor=#d6b656;strokeWidth=3;" vertex="1" parent="Wb4yIE2d1NivTpbuQsiC-1">
          <mxGeometry x="509.5" y="370" width="60" height="30" as="geometry" />
        </mxCell>
        <mxCell id="U0yheI_mIUvBaA4ScWsQ-12" style="edgeStyle=orthogonalEdgeStyle;rounded=0;orthogonalLoop=1;jettySize=auto;html=1;exitX=0.5;exitY=0;exitDx=0;exitDy=0;entryX=0.5;entryY=1;entryDx=0;entryDy=0;" edge="1" parent="Wb4yIE2d1NivTpbuQsiC-1" source="U0yheI_mIUvBaA4ScWsQ-13" target="U0yheI_mIUvBaA4ScWsQ-30">
          <mxGeometry relative="1" as="geometry" />
        </mxCell>
        <mxCell id="U0yheI_mIUvBaA4ScWsQ-13" value="L7" style="rounded=1;whiteSpace=wrap;html=1;fillColor=#fff2cc;strokeColor=#d6b656;strokeWidth=3;" vertex="1" parent="Wb4yIE2d1NivTpbuQsiC-1">
          <mxGeometry x="612" y="370" width="60" height="30" as="geometry" />
        </mxCell>
        <mxCell id="U0yheI_mIUvBaA4ScWsQ-14" style="edgeStyle=orthogonalEdgeStyle;rounded=0;orthogonalLoop=1;jettySize=auto;html=1;exitX=0.5;exitY=0;exitDx=0;exitDy=0;entryX=0.5;entryY=1;entryDx=0;entryDy=0;" edge="1" parent="Wb4yIE2d1NivTpbuQsiC-1" source="U0yheI_mIUvBaA4ScWsQ-15" target="U0yheI_mIUvBaA4ScWsQ-32">
          <mxGeometry relative="1" as="geometry" />
        </mxCell>
        <mxCell id="U0yheI_mIUvBaA4ScWsQ-15" value="L8" style="rounded=1;whiteSpace=wrap;html=1;fillColor=#fff2cc;strokeColor=#d6b656;strokeWidth=3;" vertex="1" parent="Wb4yIE2d1NivTpbuQsiC-1">
          <mxGeometry x="712" y="370" width="60" height="30" as="geometry" />
        </mxCell>
        <mxCell id="U0yheI_mIUvBaA4ScWsQ-16" style="rounded=0;orthogonalLoop=1;jettySize=auto;html=1;exitX=0.5;exitY=0;exitDx=0;exitDy=0;entryX=0;entryY=1;entryDx=0;entryDy=0;" edge="1" parent="Wb4yIE2d1NivTpbuQsiC-1" source="U0yheI_mIUvBaA4ScWsQ-17" target="U0yheI_mIUvBaA4ScWsQ-34">
          <mxGeometry relative="1" as="geometry" />
        </mxCell>
        <mxCell id="U0yheI_mIUvBaA4ScWsQ-17" value="&lt;font style=&quot;font-size: 12px&quot;&gt;H1_1 =&lt;br&gt;Hash(L1)&lt;/font&gt;" style="ellipse;whiteSpace=wrap;html=1;strokeColor=#d6b656;strokeWidth=3;fillColor=#fff2cc;" vertex="1" parent="Wb4yIE2d1NivTpbuQsiC-1">
          <mxGeometry x="17" y="280" width="82.5" height="60" as="geometry" />
        </mxCell>
        <mxCell id="U0yheI_mIUvBaA4ScWsQ-18" style="edgeStyle=none;rounded=0;orthogonalLoop=1;jettySize=auto;html=1;exitX=0.5;exitY=0;exitDx=0;exitDy=0;entryX=1;entryY=1;entryDx=0;entryDy=0;" edge="1" parent="Wb4yIE2d1NivTpbuQsiC-1" source="U0yheI_mIUvBaA4ScWsQ-19" target="U0yheI_mIUvBaA4ScWsQ-34">
          <mxGeometry relative="1" as="geometry" />
        </mxCell>
        <mxCell id="U0yheI_mIUvBaA4ScWsQ-19" value="&lt;font style=&quot;font-size: 12px&quot;&gt;H1_2 =&lt;br&gt;Hash(L2)&lt;/font&gt;" style="ellipse;whiteSpace=wrap;html=1;strokeColor=#d6b656;strokeWidth=3;fillColor=#fff2cc;" vertex="1" parent="Wb4yIE2d1NivTpbuQsiC-1">
          <mxGeometry x="108.25" y="280" width="85" height="60" as="geometry" />
        </mxCell>
        <mxCell id="U0yheI_mIUvBaA4ScWsQ-20" style="edgeStyle=none;rounded=0;orthogonalLoop=1;jettySize=auto;html=1;exitX=0.5;exitY=0;exitDx=0;exitDy=0;entryX=0;entryY=1;entryDx=0;entryDy=0;" edge="1" parent="Wb4yIE2d1NivTpbuQsiC-1" source="U0yheI_mIUvBaA4ScWsQ-21" target="U0yheI_mIUvBaA4ScWsQ-36">
          <mxGeometry relative="1" as="geometry" />
        </mxCell>
        <mxCell id="U0yheI_mIUvBaA4ScWsQ-21" value="&lt;font style=&quot;font-size: 12px&quot;&gt;H1_3 =&lt;br&gt;Hash(L3)&lt;/font&gt;" style="ellipse;whiteSpace=wrap;html=1;strokeColor=#d6b656;strokeWidth=3;fillColor=#fff2cc;" vertex="1" parent="Wb4yIE2d1NivTpbuQsiC-1">
          <mxGeometry x="200.75" y="280" width="85" height="60" as="geometry" />
        </mxCell>
        <mxCell id="U0yheI_mIUvBaA4ScWsQ-22" style="edgeStyle=none;rounded=0;orthogonalLoop=1;jettySize=auto;html=1;exitX=0.5;exitY=0;exitDx=0;exitDy=0;entryX=1;entryY=1;entryDx=0;entryDy=0;" edge="1" parent="Wb4yIE2d1NivTpbuQsiC-1" source="U0yheI_mIUvBaA4ScWsQ-23" target="U0yheI_mIUvBaA4ScWsQ-36">
          <mxGeometry relative="1" as="geometry" />
        </mxCell>
        <mxCell id="U0yheI_mIUvBaA4ScWsQ-23" value="&lt;font style=&quot;font-size: 12px&quot;&gt;H1_4 =&lt;br&gt;Hash(L4)&lt;/font&gt;" style="ellipse;whiteSpace=wrap;html=1;strokeColor=#d6b656;strokeWidth=3;fillColor=#fff2cc;" vertex="1" parent="Wb4yIE2d1NivTpbuQsiC-1">
          <mxGeometry x="293.25" y="280" width="85" height="60" as="geometry" />
        </mxCell>
        <mxCell id="U0yheI_mIUvBaA4ScWsQ-24" style="edgeStyle=none;rounded=0;orthogonalLoop=1;jettySize=auto;html=1;exitX=0.5;exitY=0;exitDx=0;exitDy=0;entryX=0;entryY=1;entryDx=0;entryDy=0;" edge="1" parent="Wb4yIE2d1NivTpbuQsiC-1" source="U0yheI_mIUvBaA4ScWsQ-25" target="U0yheI_mIUvBaA4ScWsQ-38">
          <mxGeometry relative="1" as="geometry" />
        </mxCell>
        <mxCell id="U0yheI_mIUvBaA4ScWsQ-25" value="&lt;font style=&quot;font-size: 12px&quot;&gt;H1_5 =&lt;br&gt;Hash(L5)&lt;/font&gt;" style="ellipse;whiteSpace=wrap;html=1;strokeWidth=3;fillColor=#fff2cc;strokeColor=#FF6666;" vertex="1" parent="Wb4yIE2d1NivTpbuQsiC-1">
          <mxGeometry x="397" y="280" width="85" height="60" as="geometry" />
        </mxCell>
        <mxCell id="U0yheI_mIUvBaA4ScWsQ-26" style="edgeStyle=none;rounded=0;orthogonalLoop=1;jettySize=auto;html=1;exitX=0.5;exitY=0;exitDx=0;exitDy=0;entryX=1;entryY=1;entryDx=0;entryDy=0;" edge="1" parent="Wb4yIE2d1NivTpbuQsiC-1" source="U0yheI_mIUvBaA4ScWsQ-27" target="U0yheI_mIUvBaA4ScWsQ-38">
          <mxGeometry relative="1" as="geometry" />
        </mxCell>
        <mxCell id="U0yheI_mIUvBaA4ScWsQ-27" value="&lt;font style=&quot;font-size: 12px&quot;&gt;H1_6 =&lt;br&gt;Hash(L6)&lt;/font&gt;" style="ellipse;whiteSpace=wrap;html=1;strokeColor=#d6b656;strokeWidth=3;fillColor=#fff2cc;" vertex="1" parent="Wb4yIE2d1NivTpbuQsiC-1">
          <mxGeometry x="497" y="280" width="85" height="60" as="geometry" />
        </mxCell>
        <mxCell id="U0yheI_mIUvBaA4ScWsQ-29" style="edgeStyle=none;rounded=0;orthogonalLoop=1;jettySize=auto;html=1;entryX=0;entryY=1;entryDx=0;entryDy=0;" edge="1" parent="Wb4yIE2d1NivTpbuQsiC-1" target="U0yheI_mIUvBaA4ScWsQ-40">
          <mxGeometry relative="1" as="geometry">
            <mxPoint x="642" y="280" as="sourcePoint" />
          </mxGeometry>
        </mxCell>
        <mxCell id="U0yheI_mIUvBaA4ScWsQ-30" value="&lt;font style=&quot;font-size: 12px&quot;&gt;H1_7 =&lt;br&gt;Hash(L7)&lt;/font&gt;" style="ellipse;whiteSpace=wrap;html=1;strokeColor=#d6b656;strokeWidth=3;fillColor=#fff2cc;" vertex="1" parent="Wb4yIE2d1NivTpbuQsiC-1">
          <mxGeometry x="599.5" y="280" width="85" height="60" as="geometry" />
        </mxCell>
        <mxCell id="U0yheI_mIUvBaA4ScWsQ-31" style="edgeStyle=none;rounded=0;orthogonalLoop=1;jettySize=auto;html=1;exitX=0.5;exitY=0;exitDx=0;exitDy=0;entryX=1;entryY=1;entryDx=0;entryDy=0;" edge="1" parent="Wb4yIE2d1NivTpbuQsiC-1" source="U0yheI_mIUvBaA4ScWsQ-32" target="U0yheI_mIUvBaA4ScWsQ-40">
          <mxGeometry relative="1" as="geometry" />
        </mxCell>
        <mxCell id="U0yheI_mIUvBaA4ScWsQ-32" value="&lt;font style=&quot;font-size: 12px&quot;&gt;H1_8 =&lt;br&gt;Hash(L8)&lt;/font&gt;" style="ellipse;whiteSpace=wrap;html=1;strokeColor=#d6b656;strokeWidth=3;fillColor=#fff2cc;" vertex="1" parent="Wb4yIE2d1NivTpbuQsiC-1">
          <mxGeometry x="699.5" y="280" width="85" height="60" as="geometry" />
        </mxCell>
        <mxCell id="U0yheI_mIUvBaA4ScWsQ-33" style="edgeStyle=none;rounded=0;orthogonalLoop=1;jettySize=auto;html=1;exitX=0.5;exitY=0;exitDx=0;exitDy=0;entryX=0;entryY=1;entryDx=0;entryDy=0;" edge="1" parent="Wb4yIE2d1NivTpbuQsiC-1" source="U0yheI_mIUvBaA4ScWsQ-34" target="U0yheI_mIUvBaA4ScWsQ-42">
          <mxGeometry relative="1" as="geometry" />
        </mxCell>
        <mxCell id="U0yheI_mIUvBaA4ScWsQ-34" value="&lt;font style=&quot;font-size: 12px&quot;&gt;H2_1 =&lt;br&gt;Hash(H1_1, H1_2)&lt;/font&gt;" style="ellipse;whiteSpace=wrap;html=1;strokeColor=#d6b656;strokeWidth=3;fillColor=#fff2cc;" vertex="1" parent="Wb4yIE2d1NivTpbuQsiC-1">
          <mxGeometry x="65.75" y="200" width="82.5" height="60" as="geometry" />
        </mxCell>
        <mxCell id="U0yheI_mIUvBaA4ScWsQ-35" style="edgeStyle=none;rounded=0;orthogonalLoop=1;jettySize=auto;html=1;exitX=0.5;exitY=0;exitDx=0;exitDy=0;entryX=1;entryY=1;entryDx=0;entryDy=0;" edge="1" parent="Wb4yIE2d1NivTpbuQsiC-1" source="U0yheI_mIUvBaA4ScWsQ-36" target="U0yheI_mIUvBaA4ScWsQ-42">
          <mxGeometry relative="1" as="geometry" />
        </mxCell>
        <mxCell id="U0yheI_mIUvBaA4ScWsQ-36" value="&lt;font style=&quot;font-size: 12px&quot;&gt;H2_2 =&lt;br&gt;Hash(H1_3, H1_4)&lt;/font&gt;" style="ellipse;whiteSpace=wrap;html=1;strokeColor=#d6b656;strokeWidth=3;fillColor=#fff2cc;" vertex="1" parent="Wb4yIE2d1NivTpbuQsiC-1">
          <mxGeometry x="245.75" y="200" width="82.5" height="60" as="geometry" />
        </mxCell>
        <mxCell id="U0yheI_mIUvBaA4ScWsQ-37" style="edgeStyle=none;rounded=0;orthogonalLoop=1;jettySize=auto;html=1;exitX=0.5;exitY=0;exitDx=0;exitDy=0;entryX=0;entryY=1;entryDx=0;entryDy=0;" edge="1" parent="Wb4yIE2d1NivTpbuQsiC-1" source="U0yheI_mIUvBaA4ScWsQ-38" target="U0yheI_mIUvBaA4ScWsQ-44">
          <mxGeometry relative="1" as="geometry" />
        </mxCell>
        <mxCell id="U0yheI_mIUvBaA4ScWsQ-38" value="&lt;font style=&quot;font-size: 12px&quot;&gt;H2_3 =&lt;br&gt;Hash(H1_5, H1_6)&lt;/font&gt;" style="ellipse;whiteSpace=wrap;html=1;strokeWidth=3;fillColor=#fff2cc;strokeColor=#FF6666;" vertex="1" parent="Wb4yIE2d1NivTpbuQsiC-1">
          <mxGeometry x="449.5" y="200" width="82.5" height="60" as="geometry" />
        </mxCell>
        <mxCell id="U0yheI_mIUvBaA4ScWsQ-39" style="edgeStyle=none;rounded=0;orthogonalLoop=1;jettySize=auto;html=1;exitX=0.5;exitY=0;exitDx=0;exitDy=0;entryX=1;entryY=1;entryDx=0;entryDy=0;" edge="1" parent="Wb4yIE2d1NivTpbuQsiC-1" source="U0yheI_mIUvBaA4ScWsQ-40" target="U0yheI_mIUvBaA4ScWsQ-44">
          <mxGeometry relative="1" as="geometry">
            <mxPoint x="697" y="190" as="targetPoint" />
          </mxGeometry>
        </mxCell>
        <mxCell id="U0yheI_mIUvBaA4ScWsQ-40" value="&lt;font style=&quot;font-size: 12px&quot;&gt;H2_4 =&lt;br&gt;Hash(H1_7, H1_8)&lt;/font&gt;" style="ellipse;whiteSpace=wrap;html=1;strokeWidth=3;fillColor=#fff2cc;strokeColor=#d6b656;" vertex="1" parent="Wb4yIE2d1NivTpbuQsiC-1">
          <mxGeometry x="650" y="200" width="82.5" height="60" as="geometry" />
        </mxCell>
        <mxCell id="U0yheI_mIUvBaA4ScWsQ-41" style="edgeStyle=none;rounded=0;orthogonalLoop=1;jettySize=auto;html=1;exitX=0.5;exitY=0;exitDx=0;exitDy=0;entryX=0;entryY=1;entryDx=0;entryDy=0;" edge="1" parent="Wb4yIE2d1NivTpbuQsiC-1" source="U0yheI_mIUvBaA4ScWsQ-42" target="U0yheI_mIUvBaA4ScWsQ-45">
          <mxGeometry relative="1" as="geometry" />
        </mxCell>
        <mxCell id="U0yheI_mIUvBaA4ScWsQ-42" value="&lt;font style=&quot;font-size: 12px&quot;&gt;H3_1 =&lt;br&gt;Hash(H2_1, H2_2)&lt;/font&gt;" style="ellipse;whiteSpace=wrap;html=1;strokeColor=#d6b656;strokeWidth=3;fillColor=#fff2cc;" vertex="1" parent="Wb4yIE2d1NivTpbuQsiC-1">
          <mxGeometry x="155.75" y="130" width="82.5" height="60" as="geometry" />
        </mxCell>
        <mxCell id="U0yheI_mIUvBaA4ScWsQ-43" style="edgeStyle=none;rounded=0;orthogonalLoop=1;jettySize=auto;html=1;exitX=0;exitY=0;exitDx=0;exitDy=0;entryX=1;entryY=1;entryDx=0;entryDy=0;" edge="1" parent="Wb4yIE2d1NivTpbuQsiC-1" source="U0yheI_mIUvBaA4ScWsQ-44" target="U0yheI_mIUvBaA4ScWsQ-45">
          <mxGeometry relative="1" as="geometry" />
        </mxCell>
        <mxCell id="U0yheI_mIUvBaA4ScWsQ-44" value="&lt;font style=&quot;font-size: 12px&quot;&gt;H3_2 =&lt;br&gt;Hash(H2_3, H2_4)&lt;/font&gt;" style="ellipse;whiteSpace=wrap;html=1;strokeWidth=3;fillColor=#fff2cc;strokeColor=#FF6666;" vertex="1" parent="Wb4yIE2d1NivTpbuQsiC-1">
          <mxGeometry x="550" y="130" width="82.5" height="60" as="geometry" />
        </mxCell>
        <mxCell id="U0yheI_mIUvBaA4ScWsQ-45" value="&lt;font style=&quot;font-size: 12px&quot;&gt;H4_1 =&lt;br&gt;Hash(H3_1, H3_2)&lt;/font&gt;" style="ellipse;whiteSpace=wrap;html=1;strokeWidth=3;fillColor=#fff2cc;strokeColor=#FF6666;" vertex="1" parent="Wb4yIE2d1NivTpbuQsiC-1">
          <mxGeometry x="360" y="50" width="82.5" height="60" as="geometry" />
        </mxCell>
      </root>
    </mxGraphModel>
  </diagram>
  <diagram id="rPqzLxhIoH-ud8u4xm7z" name="Delete">
    <mxGraphModel dx="946" dy="645" grid="1" gridSize="10" guides="1" tooltips="1" connect="1" arrows="1" fold="1" page="1" pageScale="1" pageWidth="827" pageHeight="1169" math="0" shadow="0">
      <root>
        <mxCell id="YxgZHzmAjiqWRgQqq1Xk-0" />
        <mxCell id="YxgZHzmAjiqWRgQqq1Xk-1" parent="YxgZHzmAjiqWRgQqq1Xk-0" />
        <mxCell id="YxgZHzmAjiqWRgQqq1Xk-2" style="edgeStyle=orthogonalEdgeStyle;rounded=0;orthogonalLoop=1;jettySize=auto;html=1;exitX=0.5;exitY=0;exitDx=0;exitDy=0;entryX=0.5;entryY=1;entryDx=0;entryDy=0;" edge="1" parent="YxgZHzmAjiqWRgQqq1Xk-1" source="YxgZHzmAjiqWRgQqq1Xk-3" target="YxgZHzmAjiqWRgQqq1Xk-19">
          <mxGeometry relative="1" as="geometry" />
        </mxCell>
        <mxCell id="YxgZHzmAjiqWRgQqq1Xk-3" value="L1" style="rounded=1;whiteSpace=wrap;html=1;fillColor=#fff2cc;strokeColor=#d6b656;strokeWidth=3;" vertex="1" parent="YxgZHzmAjiqWRgQqq1Xk-1">
          <mxGeometry x="28.25" y="370" width="60" height="30" as="geometry" />
        </mxCell>
        <mxCell id="YxgZHzmAjiqWRgQqq1Xk-4" style="edgeStyle=orthogonalEdgeStyle;rounded=0;orthogonalLoop=1;jettySize=auto;html=1;exitX=0.5;exitY=0;exitDx=0;exitDy=0;entryX=0.5;entryY=1;entryDx=0;entryDy=0;" edge="1" parent="YxgZHzmAjiqWRgQqq1Xk-1" source="YxgZHzmAjiqWRgQqq1Xk-5" target="YxgZHzmAjiqWRgQqq1Xk-21">
          <mxGeometry relative="1" as="geometry" />
        </mxCell>
        <mxCell id="YxgZHzmAjiqWRgQqq1Xk-5" value="L2" style="rounded=1;whiteSpace=wrap;html=1;fillColor=#fff2cc;strokeColor=#d6b656;strokeWidth=3;" vertex="1" parent="YxgZHzmAjiqWRgQqq1Xk-1">
          <mxGeometry x="120.75" y="370" width="60" height="30" as="geometry" />
        </mxCell>
        <mxCell id="YxgZHzmAjiqWRgQqq1Xk-6" style="edgeStyle=orthogonalEdgeStyle;rounded=0;orthogonalLoop=1;jettySize=auto;html=1;exitX=0.5;exitY=0;exitDx=0;exitDy=0;entryX=0.5;entryY=1;entryDx=0;entryDy=0;" edge="1" parent="YxgZHzmAjiqWRgQqq1Xk-1" source="YxgZHzmAjiqWRgQqq1Xk-7" target="YxgZHzmAjiqWRgQqq1Xk-23">
          <mxGeometry relative="1" as="geometry" />
        </mxCell>
        <mxCell id="YxgZHzmAjiqWRgQqq1Xk-7" value="L3" style="rounded=1;whiteSpace=wrap;html=1;fillColor=#fff2cc;strokeColor=#d6b656;strokeWidth=3;" vertex="1" parent="YxgZHzmAjiqWRgQqq1Xk-1">
          <mxGeometry x="213.25" y="370" width="60" height="30" as="geometry" />
        </mxCell>
        <mxCell id="YxgZHzmAjiqWRgQqq1Xk-8" style="edgeStyle=orthogonalEdgeStyle;rounded=0;orthogonalLoop=1;jettySize=auto;html=1;exitX=0.5;exitY=0;exitDx=0;exitDy=0;entryX=0.5;entryY=1;entryDx=0;entryDy=0;" edge="1" parent="YxgZHzmAjiqWRgQqq1Xk-1" source="YxgZHzmAjiqWRgQqq1Xk-9" target="YxgZHzmAjiqWRgQqq1Xk-25">
          <mxGeometry relative="1" as="geometry" />
        </mxCell>
        <mxCell id="YxgZHzmAjiqWRgQqq1Xk-9" value="L4" style="rounded=1;whiteSpace=wrap;html=1;fillColor=#fff2cc;strokeColor=#d6b656;strokeWidth=3;" vertex="1" parent="YxgZHzmAjiqWRgQqq1Xk-1">
          <mxGeometry x="305.75" y="370" width="60" height="30" as="geometry" />
        </mxCell>
        <mxCell id="YxgZHzmAjiqWRgQqq1Xk-10" style="edgeStyle=orthogonalEdgeStyle;rounded=0;orthogonalLoop=1;jettySize=auto;html=1;exitX=0.5;exitY=0;exitDx=0;exitDy=0;entryX=0.5;entryY=1;entryDx=0;entryDy=0;" edge="1" parent="YxgZHzmAjiqWRgQqq1Xk-1" source="YxgZHzmAjiqWRgQqq1Xk-11" target="YxgZHzmAjiqWRgQqq1Xk-27">
          <mxGeometry relative="1" as="geometry" />
        </mxCell>
        <mxCell id="YxgZHzmAjiqWRgQqq1Xk-11" value="L5" style="rounded=1;whiteSpace=wrap;html=1;fillColor=#fff2cc;strokeWidth=3;strokeColor=#d6b656;" vertex="1" parent="YxgZHzmAjiqWRgQqq1Xk-1">
          <mxGeometry x="409.5" y="370" width="60" height="30" as="geometry" />
        </mxCell>
        <mxCell id="YxgZHzmAjiqWRgQqq1Xk-12" style="edgeStyle=orthogonalEdgeStyle;rounded=0;orthogonalLoop=1;jettySize=auto;html=1;exitX=0.5;exitY=0;exitDx=0;exitDy=0;entryX=0.5;entryY=1;entryDx=0;entryDy=0;" edge="1" parent="YxgZHzmAjiqWRgQqq1Xk-1" source="YxgZHzmAjiqWRgQqq1Xk-13" target="YxgZHzmAjiqWRgQqq1Xk-29">
          <mxGeometry relative="1" as="geometry" />
        </mxCell>
        <mxCell id="YxgZHzmAjiqWRgQqq1Xk-13" value="L6" style="rounded=1;whiteSpace=wrap;html=1;fillColor=#fff2cc;strokeColor=#d6b656;strokeWidth=3;" vertex="1" parent="YxgZHzmAjiqWRgQqq1Xk-1">
          <mxGeometry x="509.5" y="370" width="60" height="30" as="geometry" />
        </mxCell>
        <mxCell id="YxgZHzmAjiqWRgQqq1Xk-14" style="edgeStyle=orthogonalEdgeStyle;rounded=0;orthogonalLoop=1;jettySize=auto;html=1;exitX=0.5;exitY=0;exitDx=0;exitDy=0;entryX=0.5;entryY=1;entryDx=0;entryDy=0;" edge="1" parent="YxgZHzmAjiqWRgQqq1Xk-1" source="YxgZHzmAjiqWRgQqq1Xk-15" target="YxgZHzmAjiqWRgQqq1Xk-31">
          <mxGeometry relative="1" as="geometry" />
        </mxCell>
        <mxCell id="YxgZHzmAjiqWRgQqq1Xk-15" value="L7" style="rounded=1;whiteSpace=wrap;html=1;fillColor=#fff2cc;strokeColor=#d6b656;strokeWidth=3;" vertex="1" parent="YxgZHzmAjiqWRgQqq1Xk-1">
          <mxGeometry x="612" y="370" width="60" height="30" as="geometry" />
        </mxCell>
        <mxCell id="YxgZHzmAjiqWRgQqq1Xk-16" style="edgeStyle=orthogonalEdgeStyle;rounded=0;orthogonalLoop=1;jettySize=auto;html=1;exitX=0.5;exitY=0;exitDx=0;exitDy=0;entryX=0.5;entryY=1;entryDx=0;entryDy=0;" edge="1" parent="YxgZHzmAjiqWRgQqq1Xk-1" source="YxgZHzmAjiqWRgQqq1Xk-17" target="YxgZHzmAjiqWRgQqq1Xk-33">
          <mxGeometry relative="1" as="geometry" />
        </mxCell>
        <mxCell id="YxgZHzmAjiqWRgQqq1Xk-17" value="L8" style="rounded=1;whiteSpace=wrap;html=1;fillColor=#fff2cc;strokeColor=#d6b656;strokeWidth=3;" vertex="1" parent="YxgZHzmAjiqWRgQqq1Xk-1">
          <mxGeometry x="709.5" y="370" width="60" height="30" as="geometry" />
        </mxCell>
        <mxCell id="YxgZHzmAjiqWRgQqq1Xk-18" style="rounded=0;orthogonalLoop=1;jettySize=auto;html=1;exitX=0.5;exitY=0;exitDx=0;exitDy=0;entryX=0;entryY=1;entryDx=0;entryDy=0;" edge="1" parent="YxgZHzmAjiqWRgQqq1Xk-1" source="YxgZHzmAjiqWRgQqq1Xk-19" target="YxgZHzmAjiqWRgQqq1Xk-35">
          <mxGeometry relative="1" as="geometry" />
        </mxCell>
        <mxCell id="YxgZHzmAjiqWRgQqq1Xk-19" value="&lt;font style=&quot;font-size: 12px&quot;&gt;H1_1 =&lt;br&gt;Hash(L1)&lt;/font&gt;" style="ellipse;whiteSpace=wrap;html=1;strokeColor=#d6b656;strokeWidth=3;fillColor=#fff2cc;" vertex="1" parent="YxgZHzmAjiqWRgQqq1Xk-1">
          <mxGeometry x="17" y="280" width="82.5" height="60" as="geometry" />
        </mxCell>
        <mxCell id="YxgZHzmAjiqWRgQqq1Xk-20" style="edgeStyle=none;rounded=0;orthogonalLoop=1;jettySize=auto;html=1;exitX=0.5;exitY=0;exitDx=0;exitDy=0;entryX=1;entryY=1;entryDx=0;entryDy=0;" edge="1" parent="YxgZHzmAjiqWRgQqq1Xk-1" source="YxgZHzmAjiqWRgQqq1Xk-21" target="YxgZHzmAjiqWRgQqq1Xk-35">
          <mxGeometry relative="1" as="geometry" />
        </mxCell>
        <mxCell id="YxgZHzmAjiqWRgQqq1Xk-21" value="&lt;font style=&quot;font-size: 12px&quot;&gt;H1_2 =&lt;br&gt;Hash(L2)&lt;/font&gt;" style="ellipse;whiteSpace=wrap;html=1;strokeColor=#d6b656;strokeWidth=3;fillColor=#fff2cc;" vertex="1" parent="YxgZHzmAjiqWRgQqq1Xk-1">
          <mxGeometry x="108.25" y="280" width="85" height="60" as="geometry" />
        </mxCell>
        <mxCell id="YxgZHzmAjiqWRgQqq1Xk-22" style="edgeStyle=none;rounded=0;orthogonalLoop=1;jettySize=auto;html=1;exitX=0.5;exitY=0;exitDx=0;exitDy=0;entryX=0;entryY=1;entryDx=0;entryDy=0;" edge="1" parent="YxgZHzmAjiqWRgQqq1Xk-1" source="YxgZHzmAjiqWRgQqq1Xk-23" target="YxgZHzmAjiqWRgQqq1Xk-37">
          <mxGeometry relative="1" as="geometry" />
        </mxCell>
        <mxCell id="YxgZHzmAjiqWRgQqq1Xk-23" value="&lt;font style=&quot;font-size: 12px&quot;&gt;H1_3 =&lt;br&gt;Hash(L3)&lt;/font&gt;" style="ellipse;whiteSpace=wrap;html=1;strokeColor=#d6b656;strokeWidth=3;fillColor=#fff2cc;" vertex="1" parent="YxgZHzmAjiqWRgQqq1Xk-1">
          <mxGeometry x="200.75" y="280" width="85" height="60" as="geometry" />
        </mxCell>
        <mxCell id="YxgZHzmAjiqWRgQqq1Xk-24" style="edgeStyle=none;rounded=0;orthogonalLoop=1;jettySize=auto;html=1;exitX=0.5;exitY=0;exitDx=0;exitDy=0;entryX=1;entryY=1;entryDx=0;entryDy=0;" edge="1" parent="YxgZHzmAjiqWRgQqq1Xk-1" source="YxgZHzmAjiqWRgQqq1Xk-25" target="YxgZHzmAjiqWRgQqq1Xk-37">
          <mxGeometry relative="1" as="geometry" />
        </mxCell>
        <mxCell id="YxgZHzmAjiqWRgQqq1Xk-25" value="&lt;font style=&quot;font-size: 12px&quot;&gt;H1_4 =&lt;br&gt;Hash(L4)&lt;/font&gt;" style="ellipse;whiteSpace=wrap;html=1;strokeColor=#d6b656;strokeWidth=3;fillColor=#fff2cc;" vertex="1" parent="YxgZHzmAjiqWRgQqq1Xk-1">
          <mxGeometry x="293.25" y="280" width="85" height="60" as="geometry" />
        </mxCell>
        <mxCell id="YxgZHzmAjiqWRgQqq1Xk-26" style="edgeStyle=none;rounded=0;orthogonalLoop=1;jettySize=auto;html=1;exitX=0.5;exitY=0;exitDx=0;exitDy=0;entryX=0;entryY=1;entryDx=0;entryDy=0;dashed=1;" edge="1" parent="YxgZHzmAjiqWRgQqq1Xk-1" source="YxgZHzmAjiqWRgQqq1Xk-27" target="YxgZHzmAjiqWRgQqq1Xk-39">
          <mxGeometry relative="1" as="geometry" />
        </mxCell>
        <mxCell id="YxgZHzmAjiqWRgQqq1Xk-27" value="&lt;font style=&quot;font-size: 12px&quot;&gt;H1_5 =&lt;br&gt;Hash(L5)&lt;/font&gt;" style="ellipse;whiteSpace=wrap;html=1;strokeWidth=3;fillColor=#fff2cc;strokeColor=#d6b656;" vertex="1" parent="YxgZHzmAjiqWRgQqq1Xk-1">
          <mxGeometry x="397" y="280" width="85" height="60" as="geometry" />
        </mxCell>
        <mxCell id="YxgZHzmAjiqWRgQqq1Xk-28" style="edgeStyle=none;rounded=0;orthogonalLoop=1;jettySize=auto;html=1;exitX=0.5;exitY=0;exitDx=0;exitDy=0;entryX=0.5;entryY=1;entryDx=0;entryDy=0;" edge="1" parent="YxgZHzmAjiqWRgQqq1Xk-1" source="YxgZHzmAjiqWRgQqq1Xk-29" target="YxgZHzmAjiqWRgQqq1Xk-39">
          <mxGeometry relative="1" as="geometry" />
        </mxCell>
        <mxCell id="YxgZHzmAjiqWRgQqq1Xk-29" value="&lt;font style=&quot;font-size: 12px&quot;&gt;H1_6 =&lt;br&gt;Hash(L6)&lt;/font&gt;" style="ellipse;whiteSpace=wrap;html=1;strokeColor=#d6b656;strokeWidth=3;fillColor=#fff2cc;" vertex="1" parent="YxgZHzmAjiqWRgQqq1Xk-1">
          <mxGeometry x="497" y="280" width="85" height="60" as="geometry" />
        </mxCell>
        <mxCell id="YxgZHzmAjiqWRgQqq1Xk-30" style="edgeStyle=none;rounded=0;orthogonalLoop=1;jettySize=auto;html=1;entryX=0;entryY=1;entryDx=0;entryDy=0;dashed=1;" edge="1" parent="YxgZHzmAjiqWRgQqq1Xk-1" target="YxgZHzmAjiqWRgQqq1Xk-41">
          <mxGeometry relative="1" as="geometry">
            <mxPoint x="642" y="280" as="sourcePoint" />
          </mxGeometry>
        </mxCell>
        <mxCell id="L_WM9c2VR_vckki1tdwL-0" style="rounded=0;orthogonalLoop=1;jettySize=auto;html=1;exitX=0;exitY=0;exitDx=0;exitDy=0;entryX=1;entryY=1;entryDx=0;entryDy=0;" edge="1" parent="YxgZHzmAjiqWRgQqq1Xk-1" source="YxgZHzmAjiqWRgQqq1Xk-31" target="YxgZHzmAjiqWRgQqq1Xk-39">
          <mxGeometry relative="1" as="geometry" />
        </mxCell>
        <mxCell id="YxgZHzmAjiqWRgQqq1Xk-31" value="&lt;font style=&quot;font-size: 12px&quot;&gt;H1_7 =&lt;br&gt;Hash(L7)&lt;/font&gt;" style="ellipse;whiteSpace=wrap;html=1;strokeColor=#d6b656;strokeWidth=3;fillColor=#fff2cc;" vertex="1" parent="YxgZHzmAjiqWRgQqq1Xk-1">
          <mxGeometry x="599.5" y="280" width="85" height="60" as="geometry" />
        </mxCell>
        <mxCell id="YxgZHzmAjiqWRgQqq1Xk-32" style="edgeStyle=none;rounded=0;orthogonalLoop=1;jettySize=auto;html=1;exitX=0.5;exitY=0;exitDx=0;exitDy=0;entryX=0.5;entryY=1;entryDx=0;entryDy=0;" edge="1" parent="YxgZHzmAjiqWRgQqq1Xk-1" source="YxgZHzmAjiqWRgQqq1Xk-33" target="YxgZHzmAjiqWRgQqq1Xk-41">
          <mxGeometry relative="1" as="geometry" />
        </mxCell>
        <mxCell id="YxgZHzmAjiqWRgQqq1Xk-33" value="&lt;font style=&quot;font-size: 12px&quot;&gt;H1_8 =&lt;br&gt;Hash(L8)&lt;/font&gt;" style="ellipse;whiteSpace=wrap;html=1;strokeColor=#d6b656;strokeWidth=3;fillColor=#fff2cc;" vertex="1" parent="YxgZHzmAjiqWRgQqq1Xk-1">
          <mxGeometry x="697" y="280" width="85" height="60" as="geometry" />
        </mxCell>
        <mxCell id="YxgZHzmAjiqWRgQqq1Xk-34" style="edgeStyle=none;rounded=0;orthogonalLoop=1;jettySize=auto;html=1;exitX=0.5;exitY=0;exitDx=0;exitDy=0;entryX=0;entryY=1;entryDx=0;entryDy=0;" edge="1" parent="YxgZHzmAjiqWRgQqq1Xk-1" source="YxgZHzmAjiqWRgQqq1Xk-35" target="YxgZHzmAjiqWRgQqq1Xk-43">
          <mxGeometry relative="1" as="geometry" />
        </mxCell>
        <mxCell id="YxgZHzmAjiqWRgQqq1Xk-35" value="&lt;font style=&quot;font-size: 12px&quot;&gt;H2_1 =&lt;br&gt;Hash(H1_1, H1_2)&lt;/font&gt;" style="ellipse;whiteSpace=wrap;html=1;strokeColor=#d6b656;strokeWidth=3;fillColor=#fff2cc;" vertex="1" parent="YxgZHzmAjiqWRgQqq1Xk-1">
          <mxGeometry x="65.75" y="200" width="82.5" height="60" as="geometry" />
        </mxCell>
        <mxCell id="YxgZHzmAjiqWRgQqq1Xk-36" style="edgeStyle=none;rounded=0;orthogonalLoop=1;jettySize=auto;html=1;exitX=0.5;exitY=0;exitDx=0;exitDy=0;entryX=1;entryY=1;entryDx=0;entryDy=0;" edge="1" parent="YxgZHzmAjiqWRgQqq1Xk-1" source="YxgZHzmAjiqWRgQqq1Xk-37" target="YxgZHzmAjiqWRgQqq1Xk-43">
          <mxGeometry relative="1" as="geometry" />
        </mxCell>
        <mxCell id="YxgZHzmAjiqWRgQqq1Xk-37" value="&lt;font style=&quot;font-size: 12px&quot;&gt;H2_2 =&lt;br&gt;Hash(H1_3, H1_4)&lt;/font&gt;" style="ellipse;whiteSpace=wrap;html=1;strokeColor=#d6b656;strokeWidth=3;fillColor=#fff2cc;" vertex="1" parent="YxgZHzmAjiqWRgQqq1Xk-1">
          <mxGeometry x="245.75" y="200" width="82.5" height="60" as="geometry" />
        </mxCell>
        <mxCell id="YxgZHzmAjiqWRgQqq1Xk-38" style="edgeStyle=none;rounded=0;orthogonalLoop=1;jettySize=auto;html=1;exitX=0.5;exitY=0;exitDx=0;exitDy=0;entryX=0;entryY=1;entryDx=0;entryDy=0;" edge="1" parent="YxgZHzmAjiqWRgQqq1Xk-1" source="YxgZHzmAjiqWRgQqq1Xk-39" target="YxgZHzmAjiqWRgQqq1Xk-45">
          <mxGeometry relative="1" as="geometry" />
        </mxCell>
        <mxCell id="YxgZHzmAjiqWRgQqq1Xk-39" value="&lt;font style=&quot;font-size: 12px&quot;&gt;H2_3 =&lt;br&gt;Hash(H1_5, H1_6)&lt;/font&gt;" style="ellipse;whiteSpace=wrap;html=1;strokeWidth=3;fillColor=#fff2cc;strokeColor=#FF6666;" vertex="1" parent="YxgZHzmAjiqWRgQqq1Xk-1">
          <mxGeometry x="498.25" y="200" width="82.5" height="60" as="geometry" />
        </mxCell>
        <mxCell id="YxgZHzmAjiqWRgQqq1Xk-40" style="edgeStyle=none;rounded=0;orthogonalLoop=1;jettySize=auto;html=1;exitX=0.5;exitY=0;exitDx=0;exitDy=0;entryX=1;entryY=1;entryDx=0;entryDy=0;" edge="1" parent="YxgZHzmAjiqWRgQqq1Xk-1" source="YxgZHzmAjiqWRgQqq1Xk-41" target="YxgZHzmAjiqWRgQqq1Xk-45">
          <mxGeometry relative="1" as="geometry">
            <mxPoint x="697" y="190" as="targetPoint" />
          </mxGeometry>
        </mxCell>
        <mxCell id="YxgZHzmAjiqWRgQqq1Xk-41" value="&lt;font style=&quot;font-size: 12px&quot;&gt;H2_4 =&lt;br&gt;Hash(H1_7, H1_8)&lt;/font&gt;" style="ellipse;whiteSpace=wrap;html=1;strokeWidth=3;fillColor=#fff2cc;strokeColor=#FF6666;" vertex="1" parent="YxgZHzmAjiqWRgQqq1Xk-1">
          <mxGeometry x="698" y="200" width="82.5" height="60" as="geometry" />
        </mxCell>
        <mxCell id="YxgZHzmAjiqWRgQqq1Xk-42" style="edgeStyle=none;rounded=0;orthogonalLoop=1;jettySize=auto;html=1;exitX=0.5;exitY=0;exitDx=0;exitDy=0;entryX=0;entryY=1;entryDx=0;entryDy=0;" edge="1" parent="YxgZHzmAjiqWRgQqq1Xk-1" source="YxgZHzmAjiqWRgQqq1Xk-43" target="YxgZHzmAjiqWRgQqq1Xk-46">
          <mxGeometry relative="1" as="geometry" />
        </mxCell>
        <mxCell id="YxgZHzmAjiqWRgQqq1Xk-43" value="&lt;font style=&quot;font-size: 12px&quot;&gt;H3_1 =&lt;br&gt;Hash(H2_1, H2_2)&lt;/font&gt;" style="ellipse;whiteSpace=wrap;html=1;strokeColor=#d6b656;strokeWidth=3;fillColor=#fff2cc;" vertex="1" parent="YxgZHzmAjiqWRgQqq1Xk-1">
          <mxGeometry x="155.75" y="130" width="82.5" height="60" as="geometry" />
        </mxCell>
        <mxCell id="YxgZHzmAjiqWRgQqq1Xk-44" style="edgeStyle=none;rounded=0;orthogonalLoop=1;jettySize=auto;html=1;exitX=0;exitY=0;exitDx=0;exitDy=0;entryX=1;entryY=1;entryDx=0;entryDy=0;" edge="1" parent="YxgZHzmAjiqWRgQqq1Xk-1" source="YxgZHzmAjiqWRgQqq1Xk-45" target="YxgZHzmAjiqWRgQqq1Xk-46">
          <mxGeometry relative="1" as="geometry" />
        </mxCell>
        <mxCell id="YxgZHzmAjiqWRgQqq1Xk-45" value="&lt;font style=&quot;font-size: 12px&quot;&gt;H3_2 =&lt;br&gt;Hash(H2_3, H2_4)&lt;/font&gt;" style="ellipse;whiteSpace=wrap;html=1;strokeWidth=3;fillColor=#fff2cc;strokeColor=#FF6666;" vertex="1" parent="YxgZHzmAjiqWRgQqq1Xk-1">
          <mxGeometry x="600.75" y="120" width="82.5" height="60" as="geometry" />
        </mxCell>
        <mxCell id="YxgZHzmAjiqWRgQqq1Xk-46" value="&lt;font style=&quot;font-size: 12px&quot;&gt;H4_1 =&lt;br&gt;Hash(H3_1, H3_2)&lt;/font&gt;" style="ellipse;whiteSpace=wrap;html=1;strokeWidth=3;fillColor=#fff2cc;strokeColor=#FF6666;" vertex="1" parent="YxgZHzmAjiqWRgQqq1Xk-1">
          <mxGeometry x="360" y="50" width="82.5" height="60" as="geometry" />
        </mxCell>
        <mxCell id="bkpCFaXenFEgVXtUss_j-1" value="" style="shape=umlDestroy;whiteSpace=wrap;html=1;strokeWidth=3;strokeColor=#FF6666;" vertex="1" parent="YxgZHzmAjiqWRgQqq1Xk-1">
          <mxGeometry x="403.5" y="360" width="66" height="50" as="geometry" />
        </mxCell>
        <mxCell id="bkpCFaXenFEgVXtUss_j-2" value="" style="shape=umlDestroy;whiteSpace=wrap;html=1;strokeWidth=3;strokeColor=#FF6666;" vertex="1" parent="YxgZHzmAjiqWRgQqq1Xk-1">
          <mxGeometry x="406.5" y="280" width="66" height="50" as="geometry" />
        </mxCell>
      </root>
    </mxGraphModel>
  </diagram>
</mxfile>
